<?xml version="1.0" standalone="no"?>
<!--
  Copyright (c) 2020 Oracle and/or its affiliates.

  Licensed under the Universal Permissive License v 1.0 as shown at
  https://oss.oracle.com/licenses/upl.
  -->
<!DOCTYPE svg PUBLIC "-//W3C//DTD SVG 20010904//EN"
 "http://www.w3.org/TR/2001/REC-SVG-20010904/DTD/svg10.dtd">
<svg version="1.0" xmlns="http://www.w3.org/2000/svg"
 width="100.000000pt" height="100.000000pt" viewBox="0 0 100.000000 100.000000"
 preserveAspectRatio="xMidYMid meet">

<g transform="translate(0.000000,100.000000) scale(0.100000,-0.100000)"
fill="#000000" stroke="none">
<path d="M332 873 l-152 -88 0 -52 c0 -29 3 -53 6 -53 3 0 74 40 159 89 l153
89 153 -89 c85 -49 158 -89 162 -89 4 0 7 24 5 52 l-3 53 -150 87 c-82 48
-157 88 -165 88 -8 0 -84 -39 -168 -87z"/>
<path d="M395 636 c-92 -23 -145 -63 -145 -111 0 -38 52 -73 184 -124 72 -28
141 -59 155 -67 22 -15 23 -18 8 -29 -10 -7 -40 -15 -67 -19 -65 -9 -65 -26 0
-26 68 0 118 22 126 55 10 39 -11 55 -146 110 -131 54 -178 84 -165 104 15 25
81 44 158 46 81 2 101 11 95 41 -6 33 -109 43 -203 20z"/>
<path d="M115 617 l-40 -23 -3 -175 c-2 -129 1 -179 10 -191 7 -9 80 -55 161
-102 l148 -86 45 26 45 27 -98 57 c-54 31 -125 72 -158 92 l-60 34 -5 182 -5
181 -40 -22z"/>
<path d="M830 458 l0 -183 -154 -89 c-85 -50 -152 -94 -150 -98 3 -5 23 -17
44 -28 l38 -20 139 81 c76 44 146 88 156 96 15 14 17 37 17 197 l0 181 -40 23
c-21 12 -41 22 -44 22 -4 0 -6 -82 -6 -182z"/>
<path d="M643 613 c-19 -7 -16 -50 4 -57 24 -10 51 20 37 41 -12 19 -23 24
-41 16z"/>
<path d="M694 535 c-8 -19 3 -35 26 -35 19 0 30 17 23 38 -6 17 -42 15 -49 -3z"/>
<path d="M667 494 c-14 -14 -7 -35 11 -32 9 2 17 10 17 17 0 16 -18 25 -28 15z"/>
<path d="M610 455 c0 -8 7 -15 15 -15 8 0 15 7 15 15 0 8 -7 15 -15 15 -8 0
-15 -7 -15 -15z"/>
<path d="M580 439 c0 -5 5 -7 10 -4 6 3 10 8 10 11 0 2 -4 4 -10 4 -5 0 -10
-5 -10 -11z"/>
<path d="M380 290 c0 -5 5 -10 10 -10 6 0 10 5 10 10 0 6 -4 10 -10 10 -5 0
-10 -4 -10 -10z"/>
<path d="M420 280 c0 -5 5 -10 10 -10 6 0 10 5 10 10 0 6 -4 10 -10 10 -5 0
-10 -4 -10 -10z"/>
<path d="M450 270 c0 -5 5 -10 10 -10 6 0 10 5 10 10 0 6 -4 10 -10 10 -5 0
-10 -4 -10 -10z"/>
</g>
</svg>
